<svg width="28" height="29" viewBox="0 0 28 29" fill="none" xmlns="http://www.w3.org/2000/svg">
<path d="M3.5 8.62701C3.5 8.06234 3.9025 7.60384 4.3995 7.60384H7.50867C8.12583 7.58518 8.67067 7.13834 8.88067 6.47801L8.91567 6.36134L9.04983 5.90518C9.1315 5.62518 9.20267 5.38018 9.303 5.16201C9.69733 4.29984 10.4277 3.70134 11.2712 3.54851C11.4858 3.51001 11.7122 3.51001 11.9712 3.51001H16.0288C16.289 3.51001 16.5153 3.51001 16.7288 3.54851C17.5723 3.70134 18.3038 4.29984 18.697 5.16201C18.7973 5.38018 18.8685 5.62401 18.9513 5.90518L19.0843 6.36134L19.1193 6.47801C19.3293 7.13834 19.9827 7.58634 20.601 7.60384H23.5993C24.0975 7.60384 24.5 8.06234 24.5 8.62701C24.5 9.19168 24.0975 9.65018 23.6005 9.65018H4.39833C3.9025 9.65018 3.5 9.19168 3.5 8.62701Z" fill="black"/>
<path fill-rule="evenodd" clip-rule="evenodd" d="M13.5293 26.4898H14.4719C17.7188 26.4898 19.3416 26.4898 20.3986 25.4561C21.4533 24.4225 21.5606 22.7273 21.7764 19.337L22.0879 14.451C22.2046 12.6111 22.2629 11.6906 21.7344 11.1085C21.2048 10.5251 20.3111 10.5251 18.5226 10.5251H9.47861C7.69011 10.5251 6.79527 10.5251 6.26677 11.1085C5.73827 11.6918 5.79544 12.6111 5.91327 14.451L6.22477 19.337C6.44061 22.7273 6.54794 24.4236 7.60377 25.4561C8.65961 26.4898 10.2824 26.4898 13.5293 26.4898ZM11.9543 15.0436C11.9076 14.5373 11.4783 14.1686 10.9976 14.2188C10.5158 14.269 10.1658 14.7205 10.2136 15.2268L10.7969 21.367C10.8436 21.8733 11.2729 22.242 11.7536 22.1918C12.2354 22.1416 12.5854 21.6901 12.5376 21.1838L11.9543 15.0436ZM17.0048 14.2188C17.4854 14.269 17.8366 14.7205 17.7876 15.2268L17.2043 21.367C17.1576 21.8733 16.7271 22.242 16.2476 22.1918C15.7658 22.1416 15.4158 21.6901 15.4636 21.1838L16.0469 15.0436C16.0936 14.5373 16.5253 14.1686 17.0048 14.2188Z" fill="black"/>
</svg>
